<svg viewBox="0 0 300 300" fill="none" xmlns="http://www.w3.org/2000/svg">
<path d="M300 0H0V300H300V0Z" fill="#E9EEEE"/>
<path d="M149.995 50C94.857 50 50.0038 94.86 50.0038 149.998C50.0038 205.139 94.857 250.001 149.995 250.001C205.132 250.001 249.996 205.139 249.996 149.998C249.996 94.86 205.132 50 149.995 50V50ZM149.995 240.514C100.092 240.514 59.4938 199.907 59.4938 149.998C59.4938 100.092 100.094 59.4877 149.995 59.4877C199.902 59.4877 240.506 100.092 240.506 149.998C240.506 199.907 199.902 240.514 149.995 240.514Z" fill="url(#paint0_linear)"/>
<path d="M149.995 120.601C145.181 120.601 140.642 121.783 136.636 123.834C137.809 124.931 138.744 126.257 139.384 127.73C140.024 129.203 140.354 130.792 140.355 132.397C140.355 135.527 139.112 138.528 136.9 140.74C134.687 142.953 131.686 144.196 128.557 144.196C126.106 144.193 123.717 143.422 121.727 141.99C120.982 144.594 120.601 147.289 120.596 149.998C120.596 166.234 133.755 179.398 149.995 179.398C166.235 179.398 179.392 166.234 179.392 149.998C179.392 133.761 166.235 120.601 149.995 120.601Z" fill="url(#paint1_linear)"/>
<defs>
<linearGradient id="paint0_linear" x1="42.5582" y1="54.1175" x2="223.813" y2="138.638" gradientUnits="userSpaceOnUse">
<stop stop-color="#D0E90D"/>
<stop offset="1" stop-color="#1536F1"/>
</linearGradient>
<linearGradient id="paint1_linear" x1="76.6989" y1="147.938" x2="129.986" y2="172.786" gradientUnits="userSpaceOnUse">
<stop stop-color="#D0E90D"/>
<stop offset="1" stop-color="#1536F1"/>
</linearGradient>
</defs>
</svg>
