<svg data-v-423bf9ae="" xmlns="http://www.w3.org/2000/svg" viewBox="0 0 603.4286034586851 60" class="font">
    <!---->
    <!---->
    <!---->
    <g data-v-423bf9ae="" id="ae0a63d9-e0ca-4b9b-9dc0-829d12776acf" fill="black" transform="matrix(6.1224493980407715,0,0,6.1224493980407715,-9.67348575592041,-6.244897842407227)">
        <path d="M1.58 1.24L2.43 1.24L2.43 2.69L2.43 2.69Q2.73 2.43 3.10 2.13L3.10 2.13L3.10 2.13Q3.47 1.84 3.92 1.59L3.92 1.59L3.92 1.59Q4.36 1.35 4.88 1.18L4.88 1.18L4.88 1.18Q5.40 1.02 6.00 1.02L6.00 1.02L6.00 1.02Q6.95 1.02 7.68 1.45L7.68 1.45L7.68 1.45Q8.41 1.87 8.86 2.77L8.86 2.77L8.86 2.77Q9.30 2.37 9.76 2.04L9.76 2.04L9.76 2.04Q10.23 1.72 10.72 1.49L10.72 1.49L10.72 1.49Q11.20 1.26 11.72 1.14L11.72 1.14L11.72 1.14Q12.24 1.02 12.80 1.02L12.80 1.02L12.80 1.02Q13.50 1.02 14.08 1.26L14.08 1.26L14.08 1.26Q14.66 1.50 15.06 1.91L15.06 1.91L15.06 1.91Q15.46 2.33 15.69 2.90L15.69 2.90L15.69 2.90Q15.91 3.46 15.91 4.10L15.91 4.10L15.91 10.64L15.05 10.64L15.05 4.32L15.05 4.32Q15.05 3.73 14.91 3.27L14.91 3.27L14.91 3.27Q14.77 2.81 14.48 2.49L14.48 2.49L14.48 2.49Q14.18 2.17 13.72 2.00L13.72 2.00L13.72 2.00Q13.25 1.83 12.61 1.83L12.61 1.83L12.61 1.83Q12.10 1.83 11.60 1.98L11.60 1.98L11.60 1.98Q11.09 2.13 10.64 2.37L10.64 2.37L10.64 2.37Q10.18 2.61 9.78 2.92L9.78 2.92L9.78 2.92Q9.39 3.23 9.08 3.55L9.08 3.55L9.08 3.55Q9.12 3.75 9.12 3.88L9.12 3.88L9.12 3.88Q9.13 4.02 9.13 4.21L9.13 4.21L9.13 10.64L8.27 10.64L8.27 4.32L8.27 4.32Q8.27 3.62 8.09 3.15L8.09 3.15L8.09 3.15Q7.90 2.67 7.57 2.38L7.57 2.38L7.57 2.38Q7.25 2.08 6.80 1.96L6.80 1.96L6.80 1.96Q6.35 1.83 5.82 1.83L5.82 1.83L5.82 1.83Q5.33 1.83 4.84 2.00L4.84 2.00L4.84 2.00Q4.35 2.17 3.90 2.45L3.90 2.45L3.90 2.45Q3.46 2.72 3.08 3.06L3.08 3.06L3.08 3.06Q2.71 3.40 2.43 3.73L2.43 3.73L2.43 10.64L1.58 10.64L1.58 1.24ZM28.49 9.15L28.49 10.14L28.49 10.14Q27.92 10.32 27.43 10.45L27.43 10.45L27.43 10.45Q26.93 10.58 26.46 10.65L26.46 10.65L26.46 10.65Q25.98 10.73 25.48 10.77L25.48 10.77L25.48 10.77Q24.99 10.81 24.39 10.81L24.39 10.81L24.39 10.81Q23.01 10.81 21.90 10.47L21.90 10.47L21.90 10.47Q20.78 10.14 20.00 9.51L20.00 9.51L20.00 9.51Q19.22 8.89 18.79 8.00L18.79 8.00L18.79 8.00Q18.37 7.11 18.37 6.00L18.37 6.00L18.37 6.00Q18.37 4.93 18.77 4.03L18.77 4.03L18.77 4.03Q19.18 3.14 19.91 2.50L19.91 2.50L19.91 2.50Q20.64 1.85 21.66 1.50L21.66 1.50L21.66 1.50Q22.68 1.14 23.91 1.14L23.91 1.14L23.91 1.14Q25.19 1.14 26.19 1.48L26.19 1.48L26.19 1.48Q27.19 1.83 27.87 2.46L27.87 2.46L27.87 2.46Q28.55 3.10 28.91 4.00L28.91 4.00L28.91 4.00Q29.26 4.91 29.26 6.04L29.26 6.04L29.26 6.25L19.25 6.25L19.25 6.25Q19.33 7.13 19.69 7.83L19.69 7.83L19.69 7.83Q20.05 8.54 20.72 9.03L20.72 9.03L20.72 9.03Q21.38 9.52 22.36 9.79L22.36 9.79L22.36 9.79Q23.33 10.05 24.63 10.05L24.63 10.05L24.63 10.05Q25.18 10.05 25.75 9.97L25.75 9.97L25.75 9.97Q26.32 9.90 26.84 9.77L26.84 9.77L26.84 9.77Q27.36 9.65 27.79 9.48L27.79 9.48L27.79 9.48Q28.22 9.32 28.49 9.15L28.49 9.15ZM19.25 5.51L28.42 5.51L28.42 5.51Q28.38 4.79 28.10 4.14L28.10 4.14L28.10 4.14Q27.83 3.49 27.29 2.99L27.29 2.99L27.29 2.99Q26.74 2.49 25.90 2.19L25.90 2.19L25.90 2.19Q25.07 1.90 23.90 1.90L23.90 1.90L23.90 1.90Q22.80 1.90 21.97 2.19L21.97 2.19L21.97 2.19Q21.14 2.49 20.57 2.98L20.57 2.98L20.57 2.98Q20.00 3.48 19.67 4.13L19.67 4.13L19.67 4.13Q19.34 4.79 19.25 5.51L19.25 5.51ZM39.57 2.02L35.29 2.02L35.29 10.64L34.45 10.64L34.45 2.02L30.17 2.02L30.17 1.24L39.57 1.24L39.57 2.02ZM50.76 10.64L49.92 10.64L49.92 9.60L49.92 9.60Q49.42 9.86 48.80 10.09L48.80 10.09L48.80 10.09Q48.17 10.32 47.48 10.48L47.48 10.48L47.48 10.48Q46.79 10.64 46.05 10.73L46.05 10.73L46.05 10.73Q45.32 10.82 44.62 10.82L44.62 10.82L44.62 10.82Q43.70 10.82 42.97 10.66L42.97 10.66L42.97 10.66Q42.25 10.49 41.74 10.17L41.74 10.17L41.74 10.17Q41.23 9.84 40.96 9.36L40.96 9.36L40.96 9.36Q40.69 8.88 40.69 8.24L40.69 8.24L40.69 8.24Q40.69 7.62 41.01 7.13L41.01 7.13L41.01 7.13Q41.32 6.65 41.91 6.29L41.91 6.29L41.91 6.29Q42.50 5.93 43.33 5.68L43.33 5.68L43.33 5.68Q44.16 5.43 45.19 5.26L45.19 5.26L45.19 5.26Q46.21 5.09 47.40 4.97L47.40 4.97L47.40 4.97Q48.60 4.86 49.92 4.79L49.92 4.79L49.92 4.07L49.92 4.07Q49.92 3.63 49.75 3.29L49.75 3.29L49.75 3.29Q49.59 2.96 49.29 2.71L49.29 2.71L49.29 2.71Q49 2.46 48.60 2.29L48.60 2.29L48.60 2.29Q48.21 2.13 47.75 2.02L47.75 2.02L47.75 2.02Q47.28 1.92 46.77 1.88L46.77 1.88L46.77 1.88Q46.27 1.83 45.75 1.83L45.75 1.83L45.75 1.83Q45.06 1.83 44.50 1.90L44.50 1.90L44.50 1.90Q43.93 1.97 43.44 2.09L43.44 2.09L43.44 2.09Q42.94 2.21 42.49 2.37L42.49 2.37L42.49 2.37Q42.04 2.52 41.58 2.70L41.58 2.70L41.58 1.70L41.58 1.70Q42.53 1.45 43.61 1.26L43.61 1.26L43.61 1.26Q44.69 1.07 45.90 1.07L45.90 1.07L45.90 1.07Q46.92 1.07 47.81 1.25L47.81 1.25L47.81 1.25Q48.70 1.42 49.36 1.80L49.36 1.80L49.36 1.80Q50.01 2.19 50.39 2.79L50.39 2.79L50.39 2.79Q50.76 3.40 50.76 4.27L50.76 4.27L50.76 10.64ZM49.92 8.70L49.92 5.54L49.92 5.54Q47.68 5.67 46.10 5.89L46.10 5.89L46.10 5.89Q44.52 6.12 43.51 6.45L43.51 6.45L43.51 6.45Q42.51 6.77 42.04 7.21L42.04 7.21L42.04 7.21Q41.57 7.65 41.57 8.20L41.57 8.20L41.57 8.20Q41.57 8.65 41.80 9.00L41.80 9.00L41.80 9.00Q42.03 9.35 42.46 9.59L42.46 9.59L42.46 9.59Q42.89 9.82 43.50 9.94L43.50 9.94L43.50 9.94Q44.12 10.06 44.88 10.06L44.88 10.06L44.88 10.06Q45.34 10.06 45.82 10.01L45.82 10.01L45.82 10.01Q46.30 9.96 46.78 9.87L46.78 9.87L46.78 9.87Q47.26 9.78 47.72 9.65L47.72 9.65L47.72 9.65Q48.19 9.52 48.60 9.37L48.60 9.37L48.60 9.37Q49.01 9.22 49.35 9.05L49.35 9.05L49.35 9.05Q49.68 8.88 49.92 8.70L49.92 8.70ZM62.86 2.04L58.65 2.04L58.65 2.04Q57.62 2.04 56.88 2.18L56.88 2.18L56.88 2.18Q56.13 2.32 55.65 2.62L55.65 2.62L55.65 2.62Q55.17 2.91 54.93 3.37L54.93 3.37L54.93 3.37Q54.70 3.83 54.70 4.46L54.70 4.46L54.70 5.51L62.73 5.51L62.73 6.31L54.70 6.31L54.70 10.64L53.85 10.64L53.85 4.32L53.85 4.32Q53.85 3.60 54.10 3.02L54.10 3.02L54.10 3.02Q54.36 2.45 54.92 2.05L54.92 2.05L54.92 2.05Q55.48 1.66 56.36 1.45L56.36 1.45L56.36 1.45Q57.24 1.24 58.48 1.24L58.48 1.24L62.86 1.24L62.86 2.04ZM74.65 10.64L73.80 10.64L73.80 9.60L73.80 9.60Q73.31 9.86 72.68 10.09L72.68 10.09L72.68 10.09Q72.06 10.32 71.36 10.48L71.36 10.48L71.36 10.48Q70.67 10.64 69.94 10.73L69.94 10.73L69.94 10.73Q69.21 10.82 68.50 10.82L68.50 10.82L68.50 10.82Q67.59 10.82 66.86 10.66L66.86 10.66L66.86 10.66Q66.13 10.49 65.63 10.17L65.63 10.17L65.63 10.17Q65.12 9.84 64.85 9.36L64.85 9.36L64.85 9.36Q64.57 8.88 64.57 8.24L64.57 8.24L64.57 8.24Q64.57 7.62 64.89 7.13L64.89 7.13L64.89 7.13Q65.21 6.65 65.80 6.29L65.80 6.29L65.80 6.29Q66.38 5.93 67.21 5.68L67.21 5.68L67.21 5.68Q68.04 5.43 69.07 5.26L69.07 5.26L69.07 5.26Q70.10 5.09 71.29 4.97L71.29 4.97L71.29 4.97Q72.48 4.86 73.80 4.79L73.80 4.79L73.80 4.07L73.80 4.07Q73.80 3.63 73.64 3.29L73.64 3.29L73.64 3.29Q73.47 2.96 73.18 2.71L73.18 2.71L73.18 2.71Q72.88 2.46 72.49 2.29L72.49 2.29L72.49 2.29Q72.09 2.13 71.63 2.02L71.63 2.02L71.63 2.02Q71.17 1.92 70.66 1.88L70.66 1.88L70.66 1.88Q70.15 1.83 69.64 1.83L69.64 1.83L69.64 1.83Q68.95 1.83 68.38 1.90L68.38 1.90L68.38 1.90Q67.81 1.97 67.32 2.09L67.32 2.09L67.32 2.09Q66.83 2.21 66.38 2.37L66.38 2.37L66.38 2.37Q65.93 2.52 65.47 2.70L65.47 2.70L65.47 1.70L65.47 1.70Q66.42 1.45 67.49 1.26L67.49 1.26L67.49 1.26Q68.57 1.07 69.78 1.07L69.78 1.07L69.78 1.07Q70.81 1.07 71.70 1.25L71.70 1.25L71.70 1.25Q72.58 1.42 73.24 1.80L73.24 1.80L73.24 1.80Q73.90 2.19 74.27 2.79L74.27 2.79L74.27 2.79Q74.65 3.40 74.65 4.27L74.65 4.27L74.65 10.64ZM73.80 8.70L73.80 5.54L73.80 5.54Q71.57 5.67 69.98 5.89L69.98 5.89L69.98 5.89Q68.40 6.12 67.40 6.45L67.40 6.45L67.40 6.45Q66.39 6.77 65.92 7.21L65.92 7.21L65.92 7.21Q65.45 7.65 65.45 8.20L65.45 8.20L65.45 8.20Q65.45 8.65 65.68 9.00L65.68 9.00L65.68 9.00Q65.91 9.35 66.34 9.59L66.34 9.59L66.34 9.59Q66.77 9.82 67.39 9.94L67.39 9.94L67.39 9.94Q68.00 10.06 68.77 10.06L68.77 10.06L68.77 10.06Q69.22 10.06 69.70 10.01L69.70 10.01L69.70 10.01Q70.18 9.96 70.66 9.87L70.66 9.87L70.66 9.87Q71.14 9.78 71.61 9.65L71.61 9.65L71.61 9.65Q72.07 9.52 72.48 9.37L72.48 9.37L72.48 9.37Q72.89 9.22 73.23 9.05L73.23 9.05L73.23 9.05Q73.57 8.88 73.80 8.70L73.80 8.70ZM87.36 9.89L87.36 9.89L87.36 9.89Q86.87 10.10 86.39 10.27L86.39 10.27L86.39 10.27Q85.91 10.44 85.39 10.56L85.39 10.56L85.39 10.56Q84.87 10.68 84.29 10.75L84.29 10.75L84.29 10.75Q83.72 10.82 83.04 10.82L83.04 10.82L83.04 10.82Q82.21 10.82 81.44 10.68L81.44 10.68L81.44 10.68Q80.67 10.55 80.01 10.27L80.01 10.27L80.01 10.27Q79.34 10.00 78.80 9.59L78.80 9.59L78.80 9.59Q78.26 9.19 77.88 8.65L77.88 8.65L77.88 8.65Q77.49 8.11 77.28 7.43L77.28 7.43L77.28 7.43Q77.08 6.75 77.08 5.95L77.08 5.95L77.08 5.95Q77.08 5.14 77.28 4.46L77.28 4.46L77.28 4.46Q77.49 3.79 77.88 3.25L77.88 3.25L77.88 3.25Q78.26 2.71 78.80 2.30L78.80 2.30L78.80 2.30Q79.34 1.89 80.01 1.62L80.01 1.62L80.01 1.62Q80.67 1.35 81.44 1.21L81.44 1.21L81.44 1.21Q82.20 1.07 83.04 1.07L83.04 1.07L83.04 1.07Q83.72 1.07 84.29 1.14L84.29 1.14L84.29 1.14Q84.87 1.21 85.39 1.33L85.39 1.33L85.39 1.33Q85.91 1.46 86.39 1.62L86.39 1.62L86.39 1.62Q86.87 1.79 87.36 2.00L87.36 2.00L87.36 3.02L87.36 3.02Q86.97 2.78 86.53 2.56L86.53 2.56L86.53 2.56Q86.08 2.34 85.57 2.17L85.57 2.17L85.57 2.17Q85.05 2.01 84.46 1.91L84.46 1.91L84.46 1.91Q83.88 1.82 83.21 1.82L83.21 1.82L83.21 1.82Q81.85 1.82 80.86 2.11L80.86 2.11L80.86 2.11Q79.87 2.41 79.23 2.94L79.23 2.94L79.23 2.94Q78.58 3.48 78.27 4.24L78.27 4.24L78.27 4.24Q77.96 5.00 77.96 5.95L77.96 5.95L77.96 5.95Q77.96 6.89 78.27 7.65L78.27 7.65L78.27 7.65Q78.58 8.41 79.23 8.94L79.23 8.94L79.23 8.94Q79.87 9.48 80.86 9.77L80.86 9.77L80.86 9.77Q81.85 10.06 83.21 10.06L83.21 10.06L83.21 10.06Q83.88 10.06 84.48 9.97L84.48 9.97L84.48 9.97Q85.07 9.87 85.60 9.71L85.60 9.71L85.60 9.71Q86.12 9.54 86.56 9.33L86.56 9.33L86.56 9.33Q87.00 9.11 87.36 8.87L87.36 8.87L87.36 9.89ZM99.37 9.15L99.37 10.14L99.37 10.14Q98.79 10.32 98.30 10.45L98.30 10.45L98.30 10.45Q97.81 10.58 97.33 10.65L97.33 10.65L97.33 10.65Q96.85 10.73 96.36 10.77L96.36 10.77L96.36 10.77Q95.86 10.81 95.27 10.81L95.27 10.81L95.27 10.81Q93.88 10.81 92.77 10.47L92.77 10.47L92.77 10.47Q91.66 10.14 90.87 9.51L90.87 9.51L90.87 9.51Q90.09 8.89 89.67 8.00L89.67 8.00L89.67 8.00Q89.24 7.11 89.24 6.00L89.24 6.00L89.24 6.00Q89.24 4.93 89.65 4.03L89.65 4.03L89.65 4.03Q90.06 3.14 90.79 2.50L90.79 2.50L90.79 2.50Q91.52 1.85 92.54 1.50L92.54 1.50L92.54 1.50Q93.56 1.14 94.79 1.14L94.79 1.14L94.79 1.14Q96.07 1.14 97.06 1.48L97.06 1.48L97.06 1.48Q98.06 1.83 98.75 2.46L98.75 2.46L98.75 2.46Q99.43 3.10 99.78 4.00L99.78 4.00L99.78 4.00Q100.14 4.91 100.14 6.04L100.14 6.04L100.14 6.25L90.13 6.25L90.13 6.25Q90.20 7.13 90.56 7.83L90.56 7.83L90.56 7.83Q90.92 8.54 91.59 9.03L91.59 9.03L91.59 9.03Q92.26 9.52 93.23 9.79L93.23 9.79L93.23 9.79Q94.21 10.05 95.50 10.05L95.50 10.05L95.50 10.05Q96.06 10.05 96.63 9.97L96.63 9.97L96.63 9.97Q97.19 9.90 97.71 9.77L97.71 9.77L97.71 9.77Q98.23 9.65 98.66 9.48L98.66 9.48L98.66 9.48Q99.09 9.32 99.37 9.15L99.37 9.15ZM90.13 5.51L99.30 5.51L99.30 5.51Q99.25 4.79 98.98 4.14L98.98 4.14L98.98 4.14Q98.70 3.49 98.16 2.99L98.16 2.99L98.16 2.99Q97.62 2.49 96.78 2.19L96.78 2.19L96.78 2.19Q95.94 1.90 94.77 1.90L94.77 1.90L94.77 1.90Q93.67 1.90 92.85 2.19L92.85 2.19L92.85 2.19Q92.02 2.49 91.44 2.98L91.44 2.98L91.44 2.98Q90.87 3.48 90.54 4.13L90.54 4.13L90.54 4.13Q90.21 4.79 90.13 5.51L90.13 5.51Z"></path>
    </g> <!----> <!---->
</svg>