<svg viewBox="0 0 90 90" fill="none" xmlns="http://www.w3.org/2000/svg">
    <path d="M44.9959 0C20.1838 0 0 20.1869 0 44.999C0 69.8121 20.1838 90 44.9959 90C69.807 90 89.9959 69.8121 89.9959 44.999C89.9959 20.1869 69.807 0 44.9959 0V0ZM44.9959 85.7305C22.5394 85.7305 4.27048 67.4576 4.27048 44.999C4.27048 22.5414 22.5404 4.26945 44.9959 4.26945C67.4535 4.26945 85.7254 22.5414 85.7254 44.999C85.7254 67.4576 67.4535 85.7305 44.9959 85.7305Z" fill="white" />
    <path d="M44.9959 31.7704C42.8295 31.7704 40.7868 32.3021 38.9843 33.2253C39.5121 33.7189 39.933 34.3155 40.2209 34.9783C40.5087 35.6411 40.6575 36.356 40.658 37.0786C40.658 38.4867 40.0986 39.8371 39.103 40.8328C38.1073 41.8285 36.7569 42.3878 35.3488 42.3878C34.2457 42.3866 33.1708 42.0394 32.2755 41.3951C31.94 42.5671 31.7686 43.7799 31.7664 44.999C31.7664 52.3049 37.688 58.2286 44.9959 58.2286C52.3039 58.2286 58.2245 52.3049 58.2245 44.999C58.2245 37.692 52.3039 31.7704 44.9959 31.7704Z" fill="white" />
</svg>